<?xml version="1.0" encoding="UTF-8" standalone="no"?>
<svg
   width="1000"
   height="250"
   viewBox="0 0 1000 250"
   version="1.1"
   id="svg27"
   sodipodi:docname="selfrace_logo.svg"
   inkscape:version="1.3 (0e150ed6c4, 2023-07-21)"
   xmlns:inkscape="http://www.inkscape.org/namespaces/inkscape"
   xmlns:sodipodi="http://sodipodi.sourceforge.net/DTD/sodipodi-0.dtd"
   xmlns="http://www.w3.org/2000/svg"
   xmlns:svg="http://www.w3.org/2000/svg">
  <sodipodi:namedview
     id="namedview27"
     pagecolor="#ffffff"
     bordercolor="#000000"
     borderopacity="0.25"
     inkscape:showpageshadow="2"
     inkscape:pageopacity="0.0"
     inkscape:pagecheckerboard="true"
     inkscape:deskcolor="#d1d1d1"
     inkscape:zoom="1.5614203"
     inkscape:cx="333.99079"
     inkscape:cy="347.44008"
     inkscape:window-width="2560"
     inkscape:window-height="1369"
     inkscape:window-x="-8"
     inkscape:window-y="-8"
     inkscape:window-maximized="1"
     inkscape:current-layer="svg27" />
  <defs
     id="defs9">
    <rect
       x="1117.6616"
       y="974.55743"
       width="1182.8737"
       height="474.55743"
       id="rect3" />
    <rect
       x="882.50226"
       y="438.06271"
       width="252.36192"
       height="372.52951"
       id="rect1" />
    <linearGradient
       id="gradient_0"
       gradientUnits="userSpaceOnUse"
       x1="1093.8892"
       y1="773.86615"
       x2="1094.9066"
       y2="778.25354">
      <stop
         offset="0"
         stop-color="#FAFFF2"
         id="stop8" />
      <stop
         offset="1"
         stop-color="#FFF8FB"
         id="stop9" />
    </linearGradient>
  </defs>
  <text
     xml:space="preserve"
     id="text1"
     style="font-size:74.6667px;font-family:Corbel;-inkscape-font-specification:Corbel;white-space:pre;shape-inside:url(#rect1);fill:#4d4d4d;stroke-width:1.3" />
  <path
     d="m 122.28435,17.39872 161.5399,-0.21845 -16.92489,29.42779 c -0.017,-0.0241 -106.88354,0.0901 -145.87626,-0.17855 -6.56052,2.78518 -12.05184,8.72602 -7.82179,16.23295 3.04683,3.72487 22.27563,13.32332 27.69666,16.28571 l 0.26609,-0.007 c 1.1303,0.76213 1.84066,1.38306 3.19574,1.51332 1.6268,1.12854 7.4459,4.56571 9.21034,5.08498 0,0 58.78937,30.50108 73.43665,47.16789 13.78467,15.68528 11.06209,27.16296 10.58924,35.79376 0,0 -3.98372,18.0685 -11.68087,28.64986 -13.47668,18.52653 -34.84725,33.65381 -54.18546,35.18372 -5.57562,0.42572 -13.18385,0.21427 -18.88297,0.21356 l -32.62827,-0.0155 -101.690337,0.0155 15.11485,-27.67953 c 0,0 116.259127,0.58301 116.255067,0.3721 23.05153,0.96642 42.83658,-0.96134 58.40292,-20.47297 3.14049,-8.96721 8.24067,-19.61425 6.57327,-28.29737 -2.15537,-11.22398 -3.68347,-11.55798 -6.5586,-16.09603 C 203.68497,133.06554 107.87172,82.05994 104.34904,79.58681 99.35233,76.07883 90.827854,60.55137 91.679946,49.79331 92.568651,38.57294 103.59071,24.4169 109.6204,21.18705 c 3.53999,-1.89623 12.66395,-3.78792 12.66395,-3.78792 z"
     id="path2"
     style="fill:#bfff30;fill-opacity:1;stroke-width:0.352946" />
  <path
     d="m 73.294042,82.26603 c -0.7153,-3.01393 -1.134178,-6.09104 -1.25063,-9.18686 -0.398056,-12.0677 4.989819,-23.4347 13.099867,-32.14218 -4.814791,12.21279 -4.363801,22.28285 1.927821,33.74375 7.161482,10.39836 15.09756,13.53724 25.96471,19.38718 3.59979,1.93798 7.25429,3.86042 10.8548,5.79593 l 49.62822,26.85634 c 7.13892,3.85442 18.99942,9.3743 24.19393,15.1321 6.28137,7.07415 8.95273,16.6486 7.24829,25.95512 -1.43623,7.77874 -4.77453,13.21814 -10.11372,18.88734 -12.25931,10.88303 -22.61301,10.47708 -37.88593,10.44707 l -24.63468,-0.0311 -93.222824,0.0127 15.472676,-26.81009 c 34.478456,-0.16839 69.266748,0.35476 103.690488,-0.03 2.51257,0.15568 5.27569,0.13132 7.80941,0.13238 7.68938,0.002 15.0259,1.3301 18.69241,-6.99437 1.31978,-8.67854 -3.28892,-10.82655 -10.05022,-14.56554 -3.85,-2.12895 -7.80587,-4.18624 -11.67702,-6.27742 L 112.45072,115.28575 C 103.63843,110.52517 93.247323,105.3763 85.148925,99.62061 81.945418,97.34375 78.162117,91.75115 75.891997,88.44777 Z"
     id="path15"
     style="fill:#b3b3b3;stroke-width:0.352946" />
  <path
     d="m 113.20131,62.66246 c 7.63612,-7.69684 17.82643,-8.94188 28.07567,-8.98424 l 121.9104,0.0293 c -5.10628,8.85151 -10.15606,18.04013 -15.49525,26.71655 l -104.02587,0.03 c -0.11795,0.003 -27.0873,-13.6623 -30.46495,-17.79162 z"
     id="path16"
     style="fill:#b3b3b3;stroke-width:0.352946" />
  <path
     style="fill:#bfff30;fill-opacity:1;stroke-width:0.352946"
     d="m 65.817781,82.05952 0.798585,1.3407 c 9.030252,22.06523 18.561495,25.7052 18.561495,25.7052 3.232442,2.25179 7.850319,4.34686 11.415534,6.23895 29.490535,15.844 58.829225,31.96801 88.175485,48.077 -3.66651,8.32448 -11.00303,6.99684 -18.69241,6.99437 -2.53372,-0.001 -5.29684,0.0233 -7.80941,-0.13238 L 101.60227,139.45082 C 86.020201,131.1034 75.198222,126.75513 67.777715,108.84138 65.0132,102.16683 62.842595,88.83009 65.817781,82.05952 Z"
     id="path20" />
  <path
     d="m 355.22287,185.00731 h -59.0624 q -1.35417,-4.47916 -1.35417,-8.22916 0,-5.20832 1.875,-10.20832 h 19.79163 q -2.08333,-11.56248 -13.02081,-11.56248 -7.29165,0 -11.87498,6.24999 -4.58333,6.14583 -4.58333,15.83331 0,10.10415 4.375,16.35414 4.47916,6.24999 11.66665,6.24999 5.83332,0 11.24998,-5.83332 l 22.18746,26.66662 q -15.52081,12.18748 -34.47911,12.18748 -23.12496,0 -38.8541,-15.52081 -15.72915,-15.5208 -15.72915,-38.43743 0,-22.81247 15.83331,-38.54161 15.93748,-15.72914 39.06244,-15.72914 22.60413,0 37.91661,15.41664 15.41664,15.31248 15.41664,37.81244 0,2.29166 -0.41667,7.29166 z M 410.32695,88.44496 V 230.63223 H 371.36868 V 88.44496 Z m 79.16654,61.35407 v 40.83327 h -17.39581 v 39.99993 h -38.95827 v -88.22902 q 0,-14.89581 5.10416,-25.41663 6.45832,-13.43748 19.5833,-21.874964 13.22915,-8.541653 27.49996,-8.541653 l 4.16666,0.104166 V 127.5074 q -1.35417,-0.10417 -1.97917,-0.10417 -7.39582,0 -11.45831,4.89583 -3.95833,4.89582 -3.95833,13.95831 v 3.54166 z m 62.29158,-23.12496 v 103.95816 h -42.2916 V 88.44496 h 54.27074 q 24.79163,0 38.43744,12.29165 15.20831,13.74997 15.20831,34.89577 0,21.56247 -18.85414,36.35411 l 24.37497,58.64574 h -44.37493 l -20.5208,-45.83326 v -36.56244 h 3.33332 q 13.33332,0 13.33332,-11.45831 0,-10.10415 -15.41665,-10.10415 z m 140.10395,64.99989 v 40.31244 q -4.79166,0.83333 -8.74999,0.83333 -23.43746,0 -39.06243,-15.41664 -15.62498,-15.41664 -15.62498,-38.64577 0,-22.60414 15.72914,-38.33328 15.83331,-15.72914 38.43744,-15.72914 25.20829,0 39.68744,14.79164 14.58331,14.68748 14.58331,40.20827 v 50.93742 h -38.95827 v -48.12492 q 0,-8.22915 -4.0625,-13.12498 -3.95832,-4.89583 -10.72915,-4.89583 -6.14582,0 -10.62498,4.47916 -4.47916,4.47916 -4.47916,10.62499 0,6.45832 4.06249,10.62498 4.0625,4.16666 10.31249,4.16666 5.10416,0 9.47915,-2.70833 z m 131.4581,-8.85415 38.64577,-1.45833 q -1.66666,22.49996 -16.77081,36.97911 -15.10414,14.47914 -36.77077,14.47914 -22.91663,0 -38.74994,-15.93748 -15.72914,-15.93747 -15.72914,-39.06243 0,-21.97913 15.93747,-37.60411 15.93748,-15.62497 38.22911,-15.62497 19.47914,0 34.37495,12.29164 14.8958,12.29165 18.54163,31.35412 l -39.4791,1.45833 q -5.10416,-6.66666 -12.91665,-6.66666 -6.66665,0 -10.93748,4.375 -4.27083,4.37499 -4.27083,11.04165 0,6.77082 4.47916,11.35414 4.58333,4.58333 11.35415,4.58333 9.89582,0 14.06248,-11.56248 z m 157.70809,2.1875 H 921.9928 q -1.35416,-4.47916 -1.35416,-8.22916 0,-5.20832 1.875,-10.20832 h 19.79163 q -2.08333,-11.56248 -13.02081,-11.56248 -7.29166,0 -11.87498,6.24999 -4.58333,6.14583 -4.58333,15.83331 0,10.10415 4.37499,16.35414 4.47916,6.24999 11.66665,6.24999 5.83333,0 11.24998,-5.83332 l 22.18747,26.66662 q -15.52081,12.18748 -34.47911,12.18748 -23.12497,0 -38.85411,-15.52081 -15.72914,-15.5208 -15.72914,-38.43743 0,-22.81247 15.83331,-38.54161 15.93747,-15.72914 39.06244,-15.72914 22.60413,0 37.9166,15.41664 15.41664,15.31248 15.41664,37.81244 0,2.29166 -0.41666,7.29166 z"
     id="text2-0"
     style="font-size:213.333px;font-family:'Bauhaus 93';-inkscape-font-specification:'Bauhaus 93, ';fill:#ffffff;stroke-width:1.3"
     aria-label="elfRace" />
  <text
     xml:space="preserve"
     id="text3"
     style="font-size:192px;font-family:Corbel;-inkscape-font-specification:Corbel;white-space:pre;shape-inside:url(#rect3);fill:#4d4d4d;stroke-width:1.3" />
</svg>
