<svg
  xmlns="http://www.w3.org/2000/svg"
  viewBox="0 0 24 24"
  width="24"
  height="24"
  fill="none"
  data-sr-icon="coach"
>
  <path
    d="M10.09 1.5h3.83A2.87 2.87 0 0 1 16.79 4.37v4.78A4.78 4.78 0 0 1 12 13.93 4.78 4.78 0 0 1 7.22 9.15V4.37A2.87 2.87 0 0 1 10.09 1.5Z"
    stroke="currentColor"
    stroke-width="1.9"
    stroke-linecap="round"
    stroke-linejoin="round"
  />
  <path
    d="M7.22 5.33h9.57a0 0 0 0 1 0 0v0A2.87 2.87 0 0 1 13.91 8.2H10.09A2.87 2.87 0 0 1 7.22 5.33v0a0 0 0 0 1 0 0Z"
    stroke="currentColor"
    stroke-width="1.9"
    stroke-linecap="round"
    stroke-linejoin="round"
  />
  <path
    d="M3.39 23.5v-1A8.62 8.62 0 0 1 12 13.93a8.62 8.62 0 0 1 8.61 8.61v1"
    stroke="currentColor"
    stroke-width="1.9"
    stroke-linecap="round"
    stroke-linejoin="round"
  />
  <circle
    cx="12"
    cy="20.63"
    r="0.96"
    stroke="currentColor"
    stroke-width="1.9"
  />
  <line
    x1="12.96"
    y1="23.5"
    x2="12.96"
    y2="20.63"
    stroke="currentColor"
    stroke-width="1.9"
    stroke-linecap="round"
  />
  <polyline
    points="7.22 13.94 12 19.67 16.78 13.94"
    stroke="currentColor"
    stroke-width="1.9"
    stroke-linecap="round"
    stroke-linejoin="round"
  />
</svg>